<svg viewBox="0 0 24 24" fill="none" xmlns="http://www.w3.org/2000/svg">
<path vector-effect="non-scaling-stroke" d="M20.9655 18.8276C20.9655 18.8276 18.3103 15.4138 18.3103 12.3793V7.82759C18.3103 6.0168 17.591 4.28017 16.3106 2.99975C15.0302 1.71933 13.2935 1 11.4828 1C9.67197 1 7.93535 1.71933 6.65493 2.99975C5.37451 4.28017 4.65517 6.0168 4.65517 7.82759V12.3793C4.65517 15.4138 2 18.8276 2 18.8276H20.9655Z" stroke-linecap="round" stroke-linejoin="round"/>
<path vector-effect="non-scaling-stroke" d="M13.7586 20.7241C13.7586 21.3277 13.5189 21.9066 13.092 22.3334C12.6652 22.7602 12.0864 23 11.4828 23C10.8792 23 10.3003 22.7602 9.87349 22.3334C9.44669 21.9066 9.20691 21.3277 9.20691 20.7241" stroke-linecap="round" stroke-linejoin="round"/>
</svg>
