<svg viewBox="0 0 24 24" fill="none" xmlns="http://www.w3.org/2000/svg">
<path vector-effect="non-scaling-stroke" d="M12 17C14.2091 17 16 15.2091 16 13C16 10.7909 14.2091 9 12 9C9.79086 9 8 10.7909 8 13C8 15.2091 9.79086 17 12 17Z" stroke-miterlimit="10" stroke-linecap="square" stroke-linejoin="round"/>
<path vector-effect="non-scaling-stroke" d="M2.89655 22.1034H21.1034C21.6064 22.1034 22.0888 21.9036 22.4445 21.548C22.8002 21.1923 23 20.7099 23 20.2069V7.31035C23 6.80735 22.8002 6.32495 22.4445 5.96928C22.0888 5.61361 21.6064 5.41379 21.1034 5.41379H17.6897L15.4138 2H10.1034L7.82759 5.41379H2.89655C2.39355 5.41379 1.91116 5.61361 1.55549 5.96928C1.19981 6.32495 1 6.80735 1 7.31035V20.2069C1 20.7099 1.19981 21.1923 1.55549 21.548C1.91116 21.9036 2.39355 22.1034 2.89655 22.1034Z" stroke-miterlimit="10" stroke-linecap="square" stroke-linejoin="round"/>
</svg>
