<svg viewBox="0 0 24 24" fill="none" xmlns="http://www.w3.org/2000/svg">
<g clip-path="url(#clip0_3_42)">
<path vector-effect="non-scaling-stroke" d="M5.52098 3.99997C4.87618 3.99761 4.23824 4.13238 3.64948 4.39534C3.06072 4.65831 2.53461 5.04345 2.10604 5.52523C1.67747 6.00701 1.35624 6.57441 1.16365 7.18979C0.971067 7.80517 0.911531 8.45447 0.988994 9.09461C1.06646 9.73475 1.27915 10.3511 1.61296 10.9028C1.94677 11.4545 2.39407 11.9289 2.92518 12.2945C3.4563 12.6602 4.05909 12.9087 4.69358 13.0236C5.32806 13.1386 5.97974 13.1173 6.60537 12.9612C6.12138 15.4092 5.23564 17.7602 3.98405 19.9189H5.44518C8.41483 16.8797 10.0749 12.7975 10.0693 8.54824C10.0693 7.34197 9.59007 6.1851 8.7371 5.33213C7.88413 4.47916 6.72726 3.99997 5.52098 3.99997Z" stroke-miterlimit="10" stroke-linecap="square" stroke-linejoin="round"/>
<path vector-effect="non-scaling-stroke" d="M18.4077 3.99997C17.7629 3.99761 17.125 4.13238 16.5362 4.39534C15.9474 4.65831 15.4213 5.04345 14.9928 5.52523C14.5642 6.00701 14.243 6.57441 14.0504 7.18979C13.8578 7.80517 13.7983 8.45447 13.8757 9.09461C13.9532 9.73475 14.1659 10.3511 14.4997 10.9028C14.8335 11.4545 15.2808 11.9289 15.8119 12.2945C16.343 12.6602 16.9458 12.9087 17.5803 13.0236C18.2148 13.1386 18.8665 13.1173 19.4921 12.9612C19.0081 15.4092 18.1224 17.7602 16.8708 19.9189H18.3319C21.3016 16.8797 22.9616 12.7975 22.956 8.54824C22.956 7.34197 22.4768 6.1851 21.6238 5.33213C20.7709 4.47916 19.614 3.99997 18.4077 3.99997Z" stroke-miterlimit="10" stroke-linecap="square" stroke-linejoin="round"/>
</g>
<defs>
<clipPath id="clip0_3_42">
<rect width="24" height="24" fill="white"/>
</clipPath>
</defs>
</svg>
