<svg viewBox="0 0 24 24" fill="none" xmlns="http://www.w3.org/2000/svg">
<path fill-rule="evenodd" clip-rule="evenodd" d="M17.0007 2.83333C17.0007 2.3731 16.6276 2 16.1673 2C15.7071 2 15.334 2.3731 15.334 2.83333V4.5H8.66667V2.83333C8.66667 2.3731 8.29357 2 7.83333 2C7.3731 2 7 2.3731 7 2.83333V4.5H2.83333C2.3731 4.5 2 4.8731 2 5.33333V8.66536V20.3333C2 20.7936 2.3731 21.1667 2.83333 21.1667H11.3746C10.5109 20.0025 10 18.5609 10 17C10 15.7937 10.3051 14.6587 10.8424 13.668H9.83333C9.3731 13.668 9 13.2949 9 12.8346V12.0013C9 11.5411 9.3731 11.168 9.83333 11.168H11.5C11.8921 11.168 12.221 11.4388 12.3097 11.8036C13.551 10.6826 15.1958 10 17 10C18.9587 10 20.7295 10.8045 22 12.101V8.66536V5.33333C22 4.8731 21.6269 4.5 21.1667 4.5H17.0007V2.83333ZM3.66667 6.16667H7.83333H16.1673H20.3333V7.83203H3.66667V6.16667ZM4 12.0013C4 11.5411 4.3731 11.168 4.83333 11.168H6.5C6.96024 11.168 7.33333 11.5411 7.33333 12.0013V12.8346C7.33333 13.2949 6.96024 13.668 6.5 13.668H4.83333C4.3731 13.668 4 13.2949 4 12.8346V12.0013ZM4 15.8333C4 15.3731 4.3731 15 4.83333 15H6.5C6.96024 15 7.33333 15.3731 7.33333 15.8333V16.6667C7.33333 17.1269 6.96024 17.5 6.5 17.5H4.83333C4.3731 17.5 4 17.1269 4 16.6667V15.8333Z"/>
<path d="M17 12C14.2383 12 12 14.2383 12 17C12 19.7617 14.2383 22 17 22C19.7617 22 22 19.7617 22 17C22 14.2383 19.7617 12 17 12ZM19.9167 17.8333H17.8333V19.9167C17.8333 20.1467 17.6467 20.3333 17.4167 20.3333H16.5833C16.3533 20.3333 16.1667 20.1467 16.1667 19.9167V17.8333H14.0833C13.8533 17.8333 13.6667 17.6467 13.6667 17.4167V16.5833C13.6667 16.3533 13.8533 16.1667 14.0833 16.1667H16.1667V14.0833C16.1667 13.8533 16.3533 13.6667 16.5833 13.6667H17.4167C17.6467 13.6667 17.8333 13.8533 17.8333 14.0833V16.1667H19.9167C20.1467 16.1667 20.3333 16.3533 20.3333 16.5833V17.4167C20.3333 17.6467 20.1467 17.8333 19.9167 17.8333Z"/>
</svg>
