<svg viewBox="0 0 24 24" fill="none" xmlns="http://www.w3.org/2000/svg">
<path d="M12 3C10.22 3 8.47991 3.52784 6.99987 4.51677C5.51983 5.50571 4.36628 6.91131 3.68509 8.55585C3.0039 10.2004 2.82567 12.01 3.17294 13.7558C3.5202 15.5016 4.37737 17.1053 5.63604 18.364C6.89471 19.6226 8.49836 20.4798 10.2442 20.8271C11.99 21.1743 13.7996 20.9961 15.4442 20.3149C17.0887 19.6337 18.4943 18.4802 19.4832 17.0001C20.4722 15.5201 21 13.78 21 12C20.9973 9.61388 20.0482 7.32626 18.361 5.63902C16.6737 3.95178 14.3861 3.0027 12 3ZM16.65 12.2592L9.45 16.4592C9.40444 16.4855 9.35276 16.4994 9.30015 16.4994C9.24754 16.4994 9.19585 16.4856 9.15027 16.4593C9.10468 16.4331 9.0668 16.3953 9.04042 16.3498C9.01405 16.3043 9.00011 16.2526 9 16.2V7.8C9.00011 7.74739 9.01405 7.69573 9.04042 7.65021C9.0668 7.60469 9.10468 7.56691 9.15027 7.54065C9.19585 7.51439 9.24754 7.50058 9.30015 7.50061C9.35276 7.50063 9.40444 7.51449 9.45 7.5408L16.65 11.7408C16.6953 11.7672 16.7329 11.805 16.7591 11.8505C16.7852 11.896 16.799 11.9475 16.799 12C16.799 12.0525 16.7852 12.104 16.7591 12.1495C16.7329 12.195 16.6953 12.2328 16.65 12.2592Z"/>
</svg>
