<svg viewBox="0 0 32 32" fill="none" xmlns="http://www.w3.org/2000/svg">
<path vector-effect="non-scaling-stroke" d="M24.1 9.85H15.4444L14.6 7H8.9C7.84444 7 7 7.84444 7 8.9V21.25C7 22.3056 7.84444 23.15 8.9 23.15H15.55L16.5 26H24.1C25.1556 26 26 25.1556 26 24.1V11.75C26 10.6944 25.1556 9.85 24.1 9.85ZM11.9259 18.963C9.77963 18.963 8.05556 17.2389 8.05556 15.0926C8.05556 12.9463 9.77963 11.2222 11.9259 11.2222C12.9111 11.2222 13.8259 11.5741 14.5296 12.2426L14.6 12.313L13.4389 13.4389L13.3685 13.3333C13.087 13.087 12.6296 12.7704 11.9259 12.7704C10.6944 12.7704 9.67407 13.7907 9.67407 15.0574C9.67407 16.3241 10.6944 17.3444 11.9259 17.3444C13.2278 17.3444 13.7907 16.5352 13.9315 15.9722H11.8204V14.4944H15.5852V14.5648C15.6204 14.7759 15.6204 14.9519 15.6204 15.1278C15.6204 17.3796 14.1074 18.963 11.9259 18.963ZM17.6259 17.3444C17.9426 17.9074 18.3296 18.4704 18.7519 18.963L18.2593 19.4556L17.6259 17.3444ZM18.3648 16.6056H17.4148L17.1333 15.6204H20.9333C20.9333 15.6204 20.6167 16.8519 19.4556 18.2241C18.963 17.6259 18.6111 17.063 18.3648 16.6056ZM25.05 24.1C25.05 24.6278 24.6278 25.05 24.1 25.05H17.45L19.35 23.15L18.5759 20.5111L19.4556 19.6315L21.9889 22.2L22.6926 21.4963L20.1241 18.963C20.9685 17.9778 21.637 16.8167 21.9537 15.6204H23.15V14.6352H19.7019V13.65H18.7167V14.6352H16.8519L15.7259 10.8H24.1C24.6278 10.8 25.05 11.2222 25.05 11.75V24.1Z"/>
</svg>
