<?xml version="1.0" encoding="UTF-8"?><!DOCTYPE svg PUBLIC "-//W3C//DTD SVG 1.1//EN" "http://www.w3.org/Graphics/SVG/1.1/DTD/svg11.dtd"><svg xmlns="http://www.w3.org/2000/svg" xmlns:xlink="http://www.w3.org/1999/xlink"><defs><clipPath id="a"><rect fill="#fff"/></clipPath><clipPath id="a"><path fill="#fff" d="M0 0h24v24H0z"/></clipPath><clipPath id="a"><path fill="#fff" d="M0 0h24v24H0z"/></clipPath><clipPath id="a"><path fill="#fff" d="M0 0h24v24H0z"/></clipPath><clipPath id="a"><path fill="#fff" d="M0 0h24v24H0z"/></clipPath></defs><symbol id="solid/translate" viewBox="0 0 32 32"><path d="M24.1 9.85h-8.656L14.6 7H8.9C7.844 7 7 7.844 7 8.9v12.35c0 1.056.844 1.9 1.9 1.9h6.65L16.5 26h7.6c1.056 0 1.9-.844 1.9-1.9V11.75c0-1.056-.844-1.9-1.9-1.9m-12.174 9.113a3.86 3.86 0 0 1-3.87-3.87 3.86 3.86 0 0 1 3.87-3.87c.985 0 1.9.351 2.604 1.02l.07.07-1.161 1.126-.07-.106c-.282-.246-.74-.563-1.443-.563-1.232 0-2.252 1.02-2.252 2.287s1.02 2.287 2.252 2.287c1.302 0 1.865-.809 2.005-1.372h-2.11v-1.478h3.764v.07c.035.212.035.388.035.564 0 2.252-1.513 3.835-3.694 3.835m5.7-1.619c.317.563.704 1.126 1.126 1.619l-.493.493zm.739-.738h-.95l-.282-.986h3.8s-.316 1.232-1.477 2.604a10 10 0 0 1-1.091-1.618M25.05 24.1c0 .528-.422.95-.95.95h-6.65l1.9-1.9-.774-2.639.88-.88 2.533 2.569.704-.704-2.569-2.533c.845-.985 1.513-2.146 1.83-3.343h1.196v-.985h-3.448v-.985h-.985v.985h-1.865L15.726 10.8H24.1c.528 0 .95.422.95.95z" vector-effect="non-scaling-stroke"/></symbol><symbol id="solid/tick" viewBox="0 0 24 24"><path d="M8.963 18.451c-.274 0-.547-.104-.756-.313l-5.035-5.035 1.512-1.513 4.279 4.278L19.659 5.172l1.513 1.513L9.719 18.138c-.209.209-.482.313-.756.313"/></symbol><symbol id="solid/star" viewBox="0 0 24 24"><g clip-path="url(#a)"><path d="m12 1.37 3.399 6.888L23 9.362l-5.5 5.361 1.298 7.57L12 18.72l-6.798 3.575 1.298-7.57L1 9.361l7.601-1.104z"/></g></symbol><symbol id="solid/play" viewBox="0 0 24 24"><path d="M12 3a9 9 0 1 0 9 9 9.01 9.01 0 0 0-9-9m4.65 9.26-7.2 4.2A.3.3 0 0 1 9 16.2V7.8a.3.3 0 0 1 .45-.26l7.2 4.2a.3.3 0 0 1 0 .52"/></symbol><symbol id="solid/menu" viewBox="0 0 24 24"><path d="M9.5 6.5H22v1.667H9.5zM5.332 10.668h16.667v1.667H5.332zM2 14.832h20v1.667H2z"/></symbol><symbol id="solid/map-marker" viewBox="0 0 66 66"><path d="M48.442 25.983c0 2.813-.752 5.45-2.066 7.72h.007l-.122.196q-.15.249-.307.492L34.75 52.346a2.063 2.063 0 0 1-3.5 0L20.048 34.393q-.16-.245-.31-.497l-.12-.192h.006a15.37 15.37 0 0 1-2.065-7.721c0-8.528 6.913-15.442 15.441-15.442s15.442 6.914 15.442 15.442M33 33a6.187 6.187 0 1 0 0-12.375A6.187 6.187 0 0 0 33 33" clip-rule="evenodd"/></symbol><symbol id="solid/load-more" viewBox="0 0 24 24"><path d="M17.65 6.35A7.96 7.96 0 0 0 12 4c-4.42 0-7.99 3.58-7.99 8s3.57 8 7.99 8c3.73 0 6.84-2.55 7.73-6h-2.08A5.99 5.99 0 0 1 12 18c-3.31 0-6-2.69-6-6s2.69-6 6-6c1.66 0 3.14.69 4.22 1.78L13 11h7V4z"/></symbol><symbol id="solid/calendar-add" viewBox="0 0 24 24"><path d="M17 2.833a.833.833 0 0 0-1.666 0V4.5H8.667V2.833a.833.833 0 0 0-1.667 0V4.5H2.833A.833.833 0 0 0 2 5.333v15c0 .46.373.834.833.834h8.542A6.97 6.97 0 0 1 10 17c0-1.206.305-2.341.842-3.332H9.833A.833.833 0 0 1 9 12.835V12c0-.46.373-.833.833-.833H11.5c.392 0 .721.27.81.636A6.98 6.98 0 0 1 17 10c1.959 0 3.73.805 5 2.101V5.333a.833.833 0 0 0-.833-.833H17zM3.668 6.167h16.666v1.665H3.667zM4 12c0-.46.373-.833.833-.833H6.5c.46 0 .833.373.833.833v.834c0 .46-.373.833-.833.833H4.833A.833.833 0 0 1 4 12.835zm0 3.832c0-.46.373-.833.833-.833H6.5c.46 0 .833.373.833.833v.834c0 .46-.373.833-.833.833H4.833A.833.833 0 0 1 4 16.667z" clip-rule="evenodd"/><path d="M17 12a5 5 0 1 0 0 10 5 5 0 0 0 0-10m2.917 5.833h-2.084v2.084c0 .23-.186.416-.416.416h-.834a.417.417 0 0 1-.416-.416v-2.084h-2.084a.417.417 0 0 1-.416-.416v-.834c0-.23.186-.416.416-.416h2.084v-2.084c0-.23.186-.416.416-.416h.834c.23 0 .416.186.416.416v2.084h2.084c.23 0 .416.186.416.416v.834c0 .23-.186.416-.416.416"/></symbol><symbol id="social/youtube" viewBox="0 0 640 640"><!--!Font Awesome Free 7.1.0 by @fontawesome - https://fontawesome.com License - https://fontawesome.com/license/free Copyright 2025 Fonticons, Inc.--><path fill="currentColor" d="M581.7 188.1c-6.2-23.7-24.8-42.3-48.3-48.6C490.9 128 320.1 128 320.1 128s-170.8 0-213.4 11.5c-23.5 6.3-42 24.9-48.3 48.6C47 231 47 320.4 47 320.4s0 89.4 11.4 132.3c6.3 23.6 24.8 41.5 48.3 47.8C149.3 512 320.1 512 320.1 512s170.8 0 213.4-11.5c23.5-6.3 42-24.2 48.3-47.8 11.4-42.9 11.4-132.3 11.4-132.3s0-89.4-11.4-132.3zM264.2 401.6V239.2l142.7 81.2z"/></symbol><symbol id="social/x" viewBox="0 0 640 640"><!--!Font Awesome Free 7.1.0 by @fontawesome - https://fontawesome.com License - https://fontawesome.com/license/free Copyright 2025 Fonticons, Inc.--><path fill="currentColor" d="M453.2 112h70.6L369.6 288.2 551 528H409L297.7 382.6 170.5 528H99.8l164.9-188.5L90.8 112h145.6l100.5 132.9zm-24.8 373.8h39.1L215.1 152h-42z"/></symbol><symbol id="social/linkedin" viewBox="0 0 640 640"><!--!Font Awesome Free 7.1.0 by @fontawesome - https://fontawesome.com License - https://fontawesome.com/license/free Copyright 2025 Fonticons, Inc.--><path fill="currentColor" d="M512 96H127.9C110.3 96 96 110.5 96 128.3v383.4c0 17.8 14.3 32.3 31.9 32.3H512c17.6 0 32-14.5 32-32.3V128.3c0-17.8-14.4-32.3-32-32.3M231.4 480H165V266.2h66.5V480zm-33.2-320c21.3 0 38.5 17.2 38.5 38.5S219.5 237 198.2 237s-38.5-17.2-38.5-38.5 17.2-38.5 38.5-38.5m282.1 320h-66.4V376c0-24.8-.5-56.7-34.5-56.7-34.6 0-39.9 27-39.9 54.9V480h-66.4V266.2h63.7v29.2h.9c8.9-16.8 30.6-34.5 62.9-34.5 67.2 0 79.7 44.3 79.7 101.9z"/></symbol><symbol id="social/instagram" viewBox="0 0 640 640"><!--!Font Awesome Free 7.1.0 by @fontawesome - https://fontawesome.com License - https://fontawesome.com/license/free Copyright 2025 Fonticons, Inc.--><path fill="currentColor" d="M320.3 205c-63.5-.2-115.1 51.2-115.3 114.7S256.2 434.8 319.7 435 434.8 383.8 435 320.3 383.8 205.2 320.3 205m-.6 40.4c41.2-.2 74.7 33.1 74.9 74.3s-33.1 74.7-74.3 74.9-74.7-33.1-74.9-74.3 33.1-74.7 74.3-74.9m93.4-45.1c0-14.8 12-26.8 26.8-26.8s26.8 12 26.8 26.8-12 26.8-26.8 26.8-26.8-12-26.8-26.8m129.7 27.2c-1.7-35.9-9.9-67.7-36.2-93.9-26.2-26.2-58-34.4-93.9-36.2-37-2.1-147.9-2.1-184.9 0-35.8 1.7-67.6 9.9-93.9 36.1s-34.4 58-36.2 93.9c-2.1 37-2.1 147.9 0 184.9 1.7 35.9 9.9 67.7 36.2 93.9s58 34.4 93.9 36.2c37 2.1 147.9 2.1 184.9 0 35.9-1.7 67.7-9.9 93.9-36.2 26.2-26.2 34.4-58 36.2-93.9 2.1-37 2.1-147.8 0-184.8M495 452c-7.8 19.6-22.9 34.7-42.6 42.6-29.5 11.7-99.5 9-132.1 9s-102.7 2.6-132.1-9c-19.6-7.8-34.7-22.9-42.6-42.6-11.7-29.5-9-99.5-9-132.1s-2.6-102.7 9-132.1c7.8-19.6 22.9-34.7 42.6-42.6 29.5-11.7 99.5-9 132.1-9s102.7-2.6 132.1 9c19.6 7.8 34.7 22.9 42.6 42.6 11.7 29.5 9 99.5 9 132.1s2.7 102.7-9 132.1"/></symbol><symbol id="social/facebook" viewBox="0 0 640 640"><!--!Font Awesome Free 7.1.0 by @fontawesome - https://fontawesome.com License - https://fontawesome.com/license/free Copyright 2025 Fonticons, Inc.--><path fill="currentColor" d="M576 320c0-141.4-114.6-256-256-256S64 178.6 64 320c0 120 82.7 220.8 194.2 248.5V398.2h-52.8V320h52.8v-33.7c0-87.1 39.4-127.5 125-127.5 16.2 0 44.2 3.2 55.7 6.4V236c-6-.6-16.5-1-29.6-1-42 0-58.2 15.9-58.2 57.2V320h83.6l-14.4 78.2H351v175.9C477.8 558.8 576 450.9 576 320"/></symbol><symbol id="outline/view-grid" viewBox="0 0 24 24"><path d="M4 6a2 2 0 0 1 2-2h2a2 2 0 0 1 2 2v2a2 2 0 0 1-2 2H6a2 2 0 0 1-2-2zm10 0a2 2 0 0 1 2-2h2a2 2 0 0 1 2 2v2a2 2 0 0 1-2 2h-2a2 2 0 0 1-2-2zM4 16a2 2 0 0 1 2-2h2a2 2 0 0 1 2 2v2a2 2 0 0 1-2 2H6a2 2 0 0 1-2-2zm10 0a2 2 0 0 1 2-2h2a2 2 0 0 1 2 2v2a2 2 0 0 1-2 2h-2a2 2 0 0 1-2-2z" vector-effect="non-scaling-stroke"/></symbol><symbol id="outline/user" viewBox="0 0 24 24"><path d="M16 7a4 4 0 1 1-8 0 4 4 0 0 1 8 0m-4 7a7 7 0 0 0-7 7h14a7 7 0 0 0-7-7" vector-effect="non-scaling-stroke"/></symbol><symbol id="outline/tag" viewBox="0 0 24 24"><path d="M7 7h.01M7 3h5a2 2 0 0 1 1.414.586l7 7a2 2 0 0 1 0 2.828l-7 7a2 2 0 0 1-2.828 0l-7-7A2 2 0 0 1 3 12V7a4 4 0 0 1 4-4" vector-effect="non-scaling-stroke"/></symbol><symbol id="outline/star" viewBox="0 0 24 24"><g clip-path="url(#a)"><path d="m12 1.37 3.399 6.888L23 9.362l-5.5 5.361 1.298 7.57L12 18.72l-6.798 3.575 1.298-7.57L1 9.361l7.601-1.104z" vector-effect="non-scaling-stroke"/></g></symbol><symbol id="outline/search" viewBox="0 0 24 24"><path d="m21 21-6-6m2-5a7 7 0 1 1-14 0 7 7 0 0 1 14 0" vector-effect="non-scaling-stroke"/></symbol><symbol id="outline/quote" viewBox="0 0 24 24"><g clip-path="url(#a)"><path d="M5.521 4a4.548 4.548 0 1 0 1.084 8.961 22.6 22.6 0 0 1-2.621 6.958h1.461a16.24 16.24 0 0 0 4.624-11.37A4.55 4.55 0 0 0 5.521 4M18.408 4a4.549 4.549 0 1 0 1.084 8.961 22.6 22.6 0 0 1-2.621 6.958h1.46a16.24 16.24 0 0 0 4.625-11.37A4.55 4.55 0 0 0 18.408 4" vector-effect="non-scaling-stroke"/></g></symbol><symbol id="outline/plus" viewBox="0 0 24 24"><path d="M12 6v12M18 12H6" vector-effect="non-scaling-stroke"/></symbol><symbol id="outline/phone" viewBox="0 0 24 24"><path d="M3 5a2 2 0 0 1 2-2h3.28a1 1 0 0 1 .948.684l1.498 4.493a1 1 0 0 1-.502 1.21l-2.257 1.13a11.04 11.04 0 0 0 5.516 5.516l1.13-2.257a1 1 0 0 1 1.21-.502l4.493 1.498a1 1 0 0 1 .684.949V19a2 2 0 0 1-2 2h-1C9.716 21 3 14.284 3 6z" vector-effect="non-scaling-stroke"/></symbol><symbol id="outline/minus" viewBox="0 0 24 24"><path d="M18 12H6" vector-effect="non-scaling-stroke"/></symbol><symbol id="outline/menu" viewBox="0 0 24 24"><path d="M2 12.429h20M12 6h10M2 18.857h10" vector-effect="non-scaling-stroke"/></symbol><symbol id="outline/mail" viewBox="0 0 24 24"><path d="m3 8 7.89 5.26a2 2 0 0 0 2.22 0L21 8M5 19h14a2 2 0 0 0 2-2V7a2 2 0 0 0-2-2H5a2 2 0 0 0-2 2v10a2 2 0 0 0 2 2" vector-effect="non-scaling-stroke"/></symbol><symbol id="outline/login" viewBox="0 0 24 24"><path d="m11 16-4-4m0 0 4-4m-4 4h14m-5 4v1a3 3 0 0 1-3 3H6a3 3 0 0 1-3-3V7a3 3 0 0 1 3-3h7a3 3 0 0 1 3 3v1" vector-effect="non-scaling-stroke"/></symbol><symbol id="outline/location" viewBox="0 0 24 24"><path d="M17.657 16.657 13.414 20.9a2 2 0 0 1-2.827 0l-4.244-4.243a8 8 0 1 1 11.314 0" vector-effect="non-scaling-stroke"/><path d="M15 11a3 3 0 1 1-6 0 3 3 0 0 1 6 0" vector-effect="non-scaling-stroke"/></symbol><symbol id="outline/link-external" viewBox="0 0 24 24"><path d="M10 6H6a2 2 0 0 0-2 2v10a2 2 0 0 0 2 2h10a2 2 0 0 0 2-2v-4M14 4h6m0 0v6m0-6L10 14" vector-effect="non-scaling-stroke"/></symbol><symbol id="outline/identification" viewBox="0 0 24 24"><path d="M10 6H5a2 2 0 0 0-2 2v9a2 2 0 0 0 2 2h14a2 2 0 0 0 2-2V8a2 2 0 0 0-2-2h-5m-4 0V5a2 2 0 1 1 4 0v1m-4 0a2 2 0 1 0 4 0m-5 8a2 2 0 1 0 0-4 2 2 0 0 0 0 4m0 0c1.306 0 2.417.835 2.83 2M9 14a3 3 0 0 0-2.83 2M15 11h3m-3 4h2" vector-effect="non-scaling-stroke"/></symbol><symbol id="outline/download" viewBox="0 0 24 24"><path d="M4 16v1a3 3 0 0 0 3 3h10a3 3 0 0 0 3-3v-1m-4-4-4 4m0 0-4-4m4 4V4" vector-effect="non-scaling-stroke"/></symbol><symbol id="outline/cross" viewBox="0 0 24 24"><path d="M16.485 16.485 8 8M16.485 8 8 16.485" vector-effect="non-scaling-stroke"/></symbol><symbol id="outline/clock" viewBox="0 0 24 24"><path d="M12 8v4l3 3m6-3a9 9 0 1 1-18 0 9 9 0 0 1 18 0" vector-effect="non-scaling-stroke"/></symbol><symbol id="outline/chevron-up" viewBox="0 0 24 24"><path d="m6 15 6-6 6 6" vector-effect="non-scaling-stroke"/></symbol><symbol id="outline/chevron-right" viewBox="0 0 24 24"><path d="m9 6 6 6-6 6" vector-effect="non-scaling-stroke"/></symbol><symbol id="outline/chevron-left" viewBox="0 0 24 24"><path d="m15 18-6-6 6-6" vector-effect="non-scaling-stroke"/></symbol><symbol id="outline/chevron-down" viewBox="0 0 24 24"><path stroke-linecap="round" stroke-linejoin="round" d="m19.5 8.25-7.5 7.5-7.5-7.5"/></symbol><symbol id="outline/chevron-double-up" viewBox="0 0 24 24"><path d="m6 18 6-6 6 6M6 12l6-6 6 6" vector-effect="non-scaling-stroke"/></symbol><symbol id="outline/chevron-double-down" viewBox="0 0 24 24"><path d="m18 6-6 6-6-6M18 12l-6 6-6-6" vector-effect="non-scaling-stroke"/></symbol><symbol id="outline/camera" viewBox="0 0 24 24"><path d="M12 17a4 4 0 1 0 0-8 4 4 0 0 0 0 8" vector-effect="non-scaling-stroke"/><path d="M2.897 22.103h18.206A1.897 1.897 0 0 0 23 20.207V7.31a1.896 1.896 0 0 0-1.897-1.896H17.69L15.414 2h-5.31L7.827 5.414H2.897A1.897 1.897 0 0 0 1 7.31v12.897a1.897 1.897 0 0 0 1.897 1.896" vector-effect="non-scaling-stroke"/></symbol><symbol id="outline/calendar" viewBox="0 0 24 24"><path d="M21.938 9.875H2M20.219 5.063h-16.5C2.769 5.063 2 5.832 2 6.78v13.063c0 .949.77 1.718 1.719 1.718h16.5c.949 0 1.718-.769 1.718-1.718V6.78c0-.949-.769-1.718-1.718-1.718M6.813 3v4.125M17.125 3v4.125M18.844 15.719H5.094M9.219 12.281v6.875M14.719 12.281v6.875" vector-effect="non-scaling-stroke"/></symbol><symbol id="outline/bell" viewBox="0 0 24 24"><path d="M20.966 18.828s-2.656-3.414-2.656-6.449V7.828a6.828 6.828 0 1 0-13.655 0v4.551C4.655 15.414 2 18.828 2 18.828zM13.759 20.724a2.276 2.276 0 1 1-4.552 0" vector-effect="non-scaling-stroke"/></symbol><symbol id="outline/arrow-up" viewBox="0 0 24 24"><g clip-path="url(#a)"><path d="M12 22.828v-22M5.172 7.655 12 .828l6.828 6.827" vector-effect="non-scaling-stroke"/></g></symbol><symbol id="outline/arrow-right" viewBox="0 0 24 24"><path d="M1 11.828h22M16.172 5 23 11.828l-6.828 6.827" vector-effect="non-scaling-stroke"/></symbol><symbol id="outline/arrow-left" viewBox="0 0 24 24"><path d="M23 11.828H1M7.828 18.655 1 11.828 7.828 5" vector-effect="non-scaling-stroke"/></symbol><symbol id="outline/arrow-down" viewBox="0 0 24 24"><g clip-path="url(#a)"><path d="M12 .828v22M18.828 16 12 22.828 5.172 16" vector-effect="non-scaling-stroke"/></g></symbol><symbol id="logos/site" viewBox="0 0 20 20"><path fill="#fff" d="M2.643 6.357c1.747-1.5 3.127-2.686 6.872-.57 1.799 1.016 3.25 1.4 4.457 1.398 2.115 0 3.486-1.176 4.671-2.193a1.037 1.037 0 0 0 .122-1.439.987.987 0 0 0-1.41-.125c-1.746 1.502-3.127 2.688-6.872.57-4.948-2.793-7.266-.803-9.128.797a1.037 1.037 0 0 0-.121 1.439.986.986 0 0 0 1.409.123m14.712 2.178c-1.746 1.5-3.127 2.688-6.872.57-4.948-2.795-7.266-.804-9.128.795a1.037 1.037 0 0 0-.121 1.439.986.986 0 0 0 1.409.125c1.747-1.501 3.127-2.687 6.872-.572 1.799 1.018 3.25 1.4 4.457 1.4 2.115 0 3.486-1.176 4.671-2.195a1.035 1.035 0 0 0 .122-1.438.986.986 0 0 0-1.41-.124m0 5.106c-1.746 1.502-3.127 2.688-6.872.572-4.948-2.795-7.266-.805-9.128.795a1.037 1.037 0 0 0-.121 1.439.985.985 0 0 0 1.409.123c1.747-1.5 3.127-2.685 6.872-.57 1.799 1.016 3.25 1.4 4.457 1.4 2.115 0 3.486-1.178 4.671-2.195a1.037 1.037 0 0 0 .122-1.439.99.99 0 0 0-1.41-.125"/></symbol><symbol id="author/pencil" viewBox="0 0 24 24"><path fill="currentColor" d="M21.731 2.269a2.625 2.625 0 0 0-3.712 0l-1.157 1.157 3.712 3.712 1.157-1.157a2.625 2.625 0 0 0 0-3.712M19.513 8.199l-3.712-3.712-12.15 12.15a5.25 5.25 0 0 0-1.32 2.214l-.8 2.685a.75.75 0 0 0 .933.933l2.685-.8a5.25 5.25 0 0 0 2.214-1.32z"/></symbol><symbol id="author/eye" viewBox="0 0 24 24"><path fill="currentColor" d="M12 15a3 3 0 1 0 0-6 3 3 0 0 0 0 6"/><path fill="currentColor" fill-rule="evenodd" d="M1.323 11.447C2.811 6.976 7.028 3.75 12.001 3.75c4.97 0 9.185 3.223 10.675 7.69.12.362.12.752 0 1.113-1.487 4.471-5.705 7.697-10.677 7.697-4.97 0-9.186-3.223-10.675-7.69a1.76 1.76 0 0 1 0-1.113M17.25 12a5.25 5.25 0 1 1-10.5 0 5.25 5.25 0 0 1 10.5 0" clip-rule="evenodd"/></symbol><symbol id="author/clipboard-document" viewBox="0 0 24 24"><path fill="currentColor" fill-rule="evenodd" d="M17.663 3.118q.338.023.673.05C19.876 3.298 21 4.604 21 6.109v9.642a3 3 0 0 1-3 3V16.5c0-5.922-4.576-10.775-10.384-11.217.324-1.132 1.3-2.01 2.548-2.114q.336-.029.673-.051A3 3 0 0 1 13.5 1.5H15a3 3 0 0 1 2.663 1.618M12 4.5A1.5 1.5 0 0 1 13.5 3H15a1.5 1.5 0 0 1 1.5 1.5z" clip-rule="evenodd"/><path fill="currentColor" d="M3 8.625c0-1.036.84-1.875 1.875-1.875h.375A3.75 3.75 0 0 1 9 10.5v1.875c0 1.036.84 1.875 1.875 1.875h1.875A3.75 3.75 0 0 1 16.5 18v2.625c0 1.035-.84 1.875-1.875 1.875h-9.75A1.875 1.875 0 0 1 3 20.625z"/><path fill="currentColor" d="M10.5 10.5a5.23 5.23 0 0 0-1.279-3.434 9.77 9.77 0 0 1 6.963 6.963 5.23 5.23 0 0 0-3.434-1.279h-1.875a.375.375 0 0 1-.375-.375z"/></symbol></svg>